<svg width="20" height="21" viewBox="0 0 20 21" fill="none" xmlns="http://www.w3.org/2000/svg">
<path fill-rule="evenodd" clip-rule="evenodd" d="M6.34143 9.15527e-05C5.51301 9.15527e-05 4.84143 0.671664 4.84143 1.50009C4.84143 2.32852 5.51301 3.00009 6.34143 3.00009H16.7578V12.4234C16.7578 13.2519 17.4294 13.9234 18.2578 13.9234C19.0862 13.9234 19.7578 13.2519 19.7578 12.4234V2.50009C19.7578 1.11938 18.6385 9.15527e-05 17.2578 9.15527e-05H6.34143ZM1.99997 4.91473H13.1219C14.2265 4.91473 15.1219 5.81016 15.1219 6.91473V18.0367C15.1219 19.1412 14.2265 20.0367 13.1219 20.0367H1.99997C0.895401 20.0367 -3.05176e-05 19.1412 -3.05176e-05 18.0367V6.91473C-3.05176e-05 5.81016 0.8954 4.91473 1.99997 4.91473Z" fill="#6A6A6A"/>
</svg>
